<?xml version="1.0" encoding="UTF-8"?>
<svg id="Ebene_1" data-name="Ebene 1" xmlns="http://www.w3.org/2000/svg" xmlns:xlink="http://www.w3.org/1999/xlink" viewBox="0 0 146.75 203.38">
  <defs>
    <style>
      .cls-1 {
        stroke: #b466a5;
      }

      .cls-1, .cls-2, .cls-3, .cls-4 {
        fill: none;
        stroke-linecap: round;
        stroke-miterlimit: 10;
      }

      .cls-1, .cls-2, .cls-4 {
        stroke-width: 5px;
      }

      .cls-2 {
        stroke: #6d2362;
      }

      .cls-5 {
        fill: #f4b4d2;
      }

      .cls-5, .cls-6, .cls-7, .cls-8, .cls-9, .cls-10 {
        stroke-width: 0px;
      }

      .cls-3 {
        stroke: #dc83b4;
        stroke-width: 3px;
      }

      .cls-6 {
        fill: #dd83b5;
      }

      .cls-7 {
        fill: url(#Unbenannter_Verlauf_67);
      }

      .cls-8 {
        fill: #f0c4dd;
      }

      .cls-9 {
        fill: #803076;
      }

      .cls-10 {
        fill: #fff;
      }

      .cls-4 {
        stroke: #eec4dd;
      }
    </style>
    <linearGradient id="Unbenannter_Verlauf_67" data-name="Unbenannter Verlauf 67" x1="88.86" y1="-31.67" x2="26.25" y2="505.48" gradientUnits="userSpaceOnUse">
      <stop offset="0" stop-color="#eb619e"/>
      <stop offset="1" stop-color="#b6115c"/>
    </linearGradient>
  </defs>
  <path class="cls-7" d="M144.51,101.04c.04-11.08-8.47-16.59-14.65-25.76-6.74-10.26-8.28-11.01-7.14-30.76v-.08c0-1.29.04-2.58.11-3.86.44-7.77-5.97-14.58-14.46-14.88-.21,0-.42-.01-.63-.01-2.73,0-5.3.64-7.53,1.76v-.17h-.06c-1.61-1.62-3.39-3.09-5.32-4.39,3.65-.37,8.02-1.34,11.89-3.9,6.54-4.33,5.94-14.95.13-17.79-5.25-2.57-12.46-1.57-13.56,8.16-.42,3.76-3.94,7.56-6.11,9.59-4.27-1.62-8.94-2.52-13.85-2.52-5.64,0-10.98,1.19-15.74,3.29-2.07-1.86-6.15-5.98-6.61-10.05C49.87-.04,42.66-1.05,37.41,1.52c-5.81,2.84-6.41,13.46.13,17.79,4.52,3,9.71,3.81,13.65,4.04-1.71,1.21-3.3,2.54-4.75,4h.15s-.05.06-.08.08c-2.23-1.11-4.78-1.74-7.49-1.74-.21,0-.42,0-.63.01-8.49.31-14.9,7.12-14.46,14.88.07,1.28.11,2.56.11,3.86v.08c1.13,19.75-.4,20.5-7.14,30.76-6.18,9.17-14.69,14.68-14.65,25.76.05,13.47,9.66,24.88,22.76,29.11.13,1.26-.07,6.4-7.81,21.35-9.75,18.84-8.55,51.88,56.15,51.88h.05c64.7,0,65.91-33.04,56.15-51.88-7.73-14.94-7.94-20.08-7.81-21.35,13.1-4.24,22.71-15.65,22.76-29.11ZM48.46,129.81c3.6-1.28,6.91-3.09,9.79-5.35h0c1.33-.91,3.26-1.8,5.3-2.6,8.17-3.22,17.64-2.31,24.82,2.51.04.03.09.06.13.09h0c2.88,2.26,6.19,4.07,9.79,5.35h-49.83Z"/>
  <path class="cls-9" d="M53.75,19.74s-2.46-1.57-5.65-4.99c-4.22-4.53-1.41-10.18-7.83-8.85-4.75.98-4.67,13.84,13.48,13.84Z"/>
  <path class="cls-9" d="M90.49,19.42s2.46-1.57,5.65-4.99c4.22-4.53,1.41-10.18,7.83-8.85,4.75.98,4.67,13.84-13.48,13.84Z"/>
  <path class="cls-9" d="M44.19,131.96s.92,2.47-4.9,13.71c-6.17,11.91-5.4,32.81,35.51,32.81h.03c40.91,0,41.68-20.89,35.51-32.81-5.82-11.25-4.9-13.71-4.9-13.71l-22.43-30.85-38.82,30.85Z"/>
  <g>
    <g>
      <path class="cls-10" d="M106.42,185.16l-1.14-3.03c-.87-2.31.3-4.89,2.61-5.75l3.13-1.17c2.31-.87,4.89.3,5.75,2.61l1.14,3.03"/>
      <path class="cls-4" d="M121.99,178.11c-5.84,4.18-12.7,7.04-20.12,8.14"/>
    </g>
    <g>
      <path class="cls-10" d="M40.33,185.16l1.14-3.03c.87-2.31-.3-4.89-2.61-5.75l-3.13-1.17c-2.31-.87-4.89.3-5.75,2.61l-1.14,3.03"/>
      <path class="cls-4" d="M24.76,178.11c5.84,4.18,12.7,7.04,20.12,8.14"/>
    </g>
  </g>
  <path class="cls-10" d="M41.91,131.66l-1.37,6.29c-.32,1.45-1.84,2.36-3.4,2.02l-4.12-.9c-1.56-.34-2.57-1.8-2.25-3.25l1.37-6.29"/>
  <path class="cls-10" d="M107.12,131.66l1.37,6.29c.32,1.45,1.84,2.36,3.4,2.02l4.12-.9c1.56-.34,2.57-1.8,2.25-3.25l-1.37-6.29"/>
  <path class="cls-1" d="M73.66,164.16c-2.97-6.87-3.15-21.39.63-28.85"/>
  <path class="cls-2" d="M48.7,44.18s-3.5-6.09-10.21-5.87c-8.46.27-9.72,8-9.72,8,0,0-7.17,0-8.82-4.54"/>
  <path class="cls-2" d="M98.59,43.79s3.5-6.09,10.21-5.87c8.46.27,9.72,8,9.72,8,0,0,7.17,0,8.82-4.54"/>
  <path class="cls-5" d="M86,115.19c-6.04-4.43-14.01-5.27-20.89-2.31-1.71.74-3.34,1.56-4.46,2.39"/>
  <path class="cls-8" d="M73.38,119.54c-5.47-.04-10.91,1.64-15.45,4.97l-.14.1h0c-5.67,4.85-12.91,7.93-20.85,8.36C17.07,134.04.07,118.11,0,98.21c-.04-11.87,7.89-18.07,14.15-27.53.72-1.09,1.66-2.04,2.75-2.75h.02c5.73-3.76,12.58-5.94,19.94-5.94,4.1,0,7.45.57,10.3,1.61,14.34,5.18,38.08,5.18,52.42,0,2.86-1.03,6.21-1.61,10.3-1.61,7.36,0,14.21,2.18,19.94,5.93h.02c1.1.73,2.03,1.67,2.75,2.77,6.26,9.46,14.19,15.66,14.15,27.53-.07,19.9-17.07,35.83-36.94,34.76-7.94-.43-15.18-3.5-20.85-8.35h0s-.14-.1-.14-.1c-4.54-3.33-9.98-5.01-15.45-4.97"/>
  <path class="cls-8" d="M115.34,73.65s6.43-10.36,14.29-7.14c7.86,3.21,2.86,13.57,1.43,16.43"/>
  <path class="cls-6" d="M119.39,79.03s4.66-1.68,5.36-4.84c.67-3.02,4.54-4.16,4.53-.02-.02,6.56-9.89,4.86-9.89,4.86Z"/>
  <path class="cls-3" d="M115.34,73.65s6.43-10.36,14.29-7.14c7.86,3.21,2.86,13.57,1.43,16.43"/>
  <path class="cls-8" d="M28.09,73.65s-6.43-10.36-14.29-7.14c-7.86,3.21-2.86,13.57-1.43,16.43"/>
  <path class="cls-6" d="M24.03,79.03s-4.66-1.68-5.36-4.84c-.67-3.02-4.54-4.16-4.53-.02.02,6.56,9.89,4.86,9.89,4.86Z"/>
  <path class="cls-3" d="M28.09,73.65s-6.43-10.36-14.29-7.14c-7.86,3.21-2.86,13.57-1.43,16.43"/>
</svg>